<!-- icon666.com - MILLIONS vector ICONS FREE --><svg fill="white" viewBox="0 -38 512 511" xmlns="http://www.w3.org/2000/svg"><path d="m256 .5c-141.160156 0-256 84.214844-256 187.734375v42.664063c0 67.894531 49.671875 130.09375 129.851562 163.304687 6.246094 24.191406 27.878907 41.238281 52.859376 41.648437 24.984374.410157 47.167968-15.914062 54.203124-39.890624 7.035157-23.976563-2.808593-49.699219-24.050781-62.851563-21.246093-13.15625-48.660156-10.503906-66.984375 6.480469-69.976562-26-117.105468-74.242188-126.847656-130.046875 14.914062-85.222657 116.410156-149.308594 236.96875-149.308594s222.027344 64.058594 236.980469 149.332031c-9.730469 55.792969-56.894531 104.011719-126.859375 130.023438-18.308594-16.945313-45.679688-19.578125-66.886719-6.4375-21.207031 13.144531-31.03125 38.828125-24.003906 62.765625 7.023437 23.941406 29.167969 40.242187 54.113281 39.84375 24.945312-.402344 46.550781-17.40625 52.804688-41.558594 80.179687-33.210937 129.851562-95.410156 129.851562-163.304687v-42.664063c0-103.519531-114.839844-187.734375-256-187.734375zm-34.132812 379.734375c0 21.207031-17.191407 38.398437-38.402344 38.398437-21.207032 0-38.398438-17.191406-38.398438-38.398437s17.191406-38.402344 38.398438-38.402344c21.199218.023438 38.378906 17.203125 38.402344 38.402344zm-87.039063-26.625c-3.621094 6.589844-5.851563 13.847656-6.5625 21.332031-55.671875-25.171875-93.9375-65.449218-106.589844-110.898437 22.636719 37.929687 62.035157 69.511719 113.152344 89.566406zm121.171875-310.441406c-103.859375 0-194.636719 45.652343-234.445312 112.210937 21.503906-78.4375 118.390624-137.8125 234.445312-137.8125s212.976562 59.402344 234.453125 137.855469c-39.808594-66.601563-130.585937-112.253906-234.453125-112.253906zm72.535156 375.464843c-21.210937 0-38.402344-17.191406-38.402344-38.398437s17.191407-38.402344 38.402344-38.402344c21.207032 0 38.398438 17.195313 38.398438 38.402344-.023438 21.195313-17.203125 38.375-38.398438 38.398437zm55.199219-43.65625c-.710937-7.484374-2.941406-14.742187-6.5625-21.332031 51.117187-20.054687 90.507813-51.628906 113.144531-89.53125-12.65625 45.394531-50.925781 85.65625-106.582031 110.863281zm0 0"></path><path d="m183.464844 401.566406c4.714844 0 8.535156-3.820312 8.535156-8.53125 0-4.714844-3.820312-8.535156-8.535156-8.535156-2.355469 0-4.265625-1.910156-4.265625-4.265625 0-4.714844-3.820313-8.535156-8.53125-8.535156-4.714844 0-8.535157 3.820312-8.535157 8.535156 0 11.78125 9.550782 21.332031 21.332032 21.332031zm0 0"></path><path d="m328.535156 384.5c-2.359375 0-4.269531-1.910156-4.269531-4.265625 0-4.714844-3.820313-8.535156-8.53125-8.535156-4.714844 0-8.535156 3.820312-8.535156 8.535156 0 11.78125 9.550781 21.332031 21.335937 21.332031 4.710938 0 8.53125-3.820312 8.53125-8.53125 0-4.714844-3.820312-8.535156-8.53125-8.535156zm0 0"></path></svg>