<!-- icon666.com - MILLIONS vector ICONS FREE --><svg viewBox="0 0 512 512.10608" fill="white" xmlns="http://www.w3.org/2000/svg"><path d="m505.535156 198.078125-4.414062-16.476563c-2.296875-8.644531-7.921875-16.03125-15.640625-20.546874 2.277343-8.65625 1.035156-17.863282-3.464844-25.601563l-8.535156-14.78125c-4.449219-7.75-11.789063-13.425781-20.410157-15.785156-.046874-8.941407-3.628906-17.5-9.964843-23.808594l-12.066407-12.023437c-6.3125-6.332032-14.867187-9.917969-23.808593-9.964844-2.359375-8.625-8.035157-15.964844-15.789063-20.421875l-14.777344-8.53125c-15.488281-9.003907-35.308593-4.390625-45.226562 10.527343l-48.828125-5.425781c.488281-8.324219-1.925781-16.558593-6.828125-23.304687-6.988281-8.230469-17.492188-12.625-28.261719-11.828125-11.8125-.917969-23.296875 4.171875-30.550781 13.542969-3.246094 4.671874-5.375 10.03125-6.21875 15.660156-11.410156 2.335937-23.039062 5.425781-32.425781 8.113281-10.691407-12.425781-28.707031-15.484375-42.898438-7.285156l-14.78125 8.53125c-7.75 4.449219-13.425781 11.789062-15.785156 20.410156-8.9375.058594-17.488281 3.644531-23.789063 9.976563l-12.066406 12.066406c-6.335937 6.308594-9.921875 14.867187-9.96875 23.808594-8.621094 2.359374-15.957031 8.035156-20.410156 15.785156l-8.535156 14.78125c-4.496094 7.738281-5.742188 16.945312-3.464844 25.601562-7.710938 4.507813-13.332031 11.878906-15.640625 20.511719l-4.410156 16.46875c-2.3125 8.632813-1.132813 17.832031 3.285156 25.601563-6.285156 6.363281-9.8085938 14.949218-9.8046875 23.894531v17.066406c-.0039063 8.941406 3.5195315 17.527344 9.8046875 23.890625-4.417969 7.769531-5.597656 16.96875-3.285156 25.601562l4.410156 16.476563c2.296875 8.644531 7.921875 16.03125 15.640625 20.550781-2.277344 8.652344-1.03125 17.859375 3.464844 25.597656l8.535156 14.78125c4.453125 7.75 11.789062 13.425782 20.410156 15.785157.046875 8.941406 3.632813 17.5 9.96875 23.808593l12.066406 12.023438c6.308594 6.335938 14.867188 9.917969 23.804688 9.96875 2.359375 8.621094 8.035156 15.964844 15.789062 20.417969l14.777344 8.535156c7.734375 4.515625 16.945313 5.761719 25.601563 3.464844 4.511719 7.695312 11.867187 13.3125 20.480469 15.632812l16.476562 4.410157c8.628906 2.347656 17.835938 1.171874 25.601562-3.269532 6.375 6.285156 14.96875 9.800782 23.917969 9.789063h17.066407c8.941406.003906 17.523437-3.511719 23.894531-9.789063 7.761719 4.441406 16.96875 5.617188 25.597656 3.269532l16.480469-4.410157c8.613281-2.320312 15.96875-7.9375 20.480468-15.632812 8.652344 2.296875 17.867188 1.050781 25.597657-3.464844l14.78125-8.535156c7.753906-4.449219 13.429687-11.789063 15.785156-20.410157 8.941406-.050781 17.5-3.632812 23.808594-9.96875l12.066406-12.066406c6.335937-6.308594 9.917969-14.867187 9.96875-23.804687 8.621094-2.363281 15.957031-8.039063 20.410156-15.789063l8.53125-14.777344c4.5-7.742187 5.746094-16.945312 3.464844-25.601562 7.722656-4.519531 13.34375-11.902344 15.644531-20.546875l4.410156-16.480469c2.3125-8.632812 1.132813-17.828125-3.285156-25.597656 6.285156-6.351562 9.816406-14.925781 9.832032-23.859375v-17.066406c0-8.945313-3.523438-17.53125-9.804688-23.894531 4.414062-7.769532 5.597656-16.96875 3.285156-25.601563zm-10.546875 49.496094v17.066406c-.011719 4.347656-1.6875 8.523437-4.6875 11.671875-2.753906-1.757812-5.753906-3.105469-8.898437-3.992188-6.066406-1.605468-12.460938-1.496093-18.46875.316407-1.34375-2.453125-2.058594-5.199219-2.082032-7.996094v-17.066406c.019532-2.777344.726563-5.507813 2.058594-7.945313 3.113282.941406 6.347656 1.429688 9.597656 1.441406 3.003907 0 5.996094-.394531 8.894532-1.175781 3.144531-.890625 6.144531-2.238281 8.898437-3.996093 3 3.148437 4.675781 7.328124 4.6875 11.675781zm-7.433593-32.582031c-9.199219-2.957032-19.238282-1.652344-27.375 3.558593-1.941407-2.027343-3.351563-4.503906-4.097657-7.210937l-4.417969-16.484375c-.703124-2.691407-.730468-5.511719-.078124-8.210938.308593 0 .621093.070313.929687.070313 9.351563.0625 18.289063-3.84375 24.59375-10.753906 3.703125 2.265624 6.398437 5.867187 7.527344 10.0625l4.417969 16.484374c1.117187 4.199219.578124 8.667969-1.5 12.484376zm-28.851563-85.742188 8.53125 14.789062c2.175781 3.757813 2.816406 8.210938 1.792969 12.433594-9.65625-.46875-19.015625 3.386719-25.546875 10.511719-2.390625-1.453125-4.382813-3.476563-5.796875-5.886719l-8.53125-14.789062c-1.382813-2.429688-2.140625-5.160156-2.210938-7.953125 9.4375-2.097657 17.457032-8.277344 21.886719-16.871094 4.167969 1.222656 7.707031 4.003906 9.875 7.765625zm-27.664063-36.0625c3.066407 3.074219 4.839844 7.210938 4.949219 11.554688-9.40625 2.042968-17.417969 8.144531-21.890625 16.664062-2.707031-.71875-5.183594-2.121094-7.191406-4.078125l-12.066406-12.074219c-1.964844-1.988281-3.402344-4.433594-4.191406-7.117187 5.527343-2.953125 10.128906-7.386719 13.289062-12.800781 1.589844-2.859376 2.765625-5.933594 3.488281-9.128907 4.339844.109375 8.472657 1.878907 11.546875 4.949219zm-71.417968-50.570312c3 0 5.941406.792968 8.535156 2.296874l14.777344 8.535157c3.761718 2.167969 6.542968 5.703125 7.765625 9.871093-8.589844 4.441407-14.773438 12.460938-16.886719 21.898438-2.796875-.0625-5.535156-.820312-7.960938-2.210938l-14.78125-8.535156c-5.503906-3.097656-8.777343-9.050781-8.445312-15.359375l6.363281.710938c4.050781.367187 7.800781-2.171875 8.957031-6.070313 1.15625-3.898437-.597656-8.074218-4.195312-9.972656.488281-.171875.941406-.402344 1.433594-.539062 1.445312-.398438 2.9375-.609376 4.4375-.625zm-128.800782-18.992188c4.152344-4.785156 10.40625-7.203125 16.699219-6.453125 5.476563-.617187 10.9375 1.304687 14.8125 5.222656 3.1875 5.542969 4.089844 12.109375 2.511719 18.304688-.601562 2.390625-.136719 4.921875 1.269531 6.945312 1.40625 2.023438 3.617188 3.339844 6.066407 3.609375l53.496093 5.972656c-1.128906 13.066407 5.453125 25.59375 16.855469 32.070313l14.777344 8.53125c5.128906 2.96875 10.941406 4.546875 16.863281 4.574219 1.523437 5.644531 4.488281 10.796875 8.601563 14.953125l12.066406 12.074219c4.191406 4.144531 9.394531 7.121093 15.09375 8.636718-.011719 5.894532 1.515625 11.695313 4.4375 16.816406l8.535156 14.78125c2.976562 5.078126 7.234375 9.285157 12.347656 12.203126-1.546875 5.691406-1.570312 11.6875-.078125 17.390624l4.429688 16.484376c1.558593 5.695312 4.578125 10.878906 8.761719 15.046874-2.96875 5.097657-4.546876 10.882813-4.582032 16.785157v17.066406c.039063 5.890625 1.617188 11.671875 4.582032 16.765625-4.183594 4.164062-7.203126 9.351562-8.761719 15.046875l-4.429688 16.484375c-1.496093 5.710938-1.46875 11.710938.078125 17.410156-5.117187 2.929688-9.378906 7.15625-12.347656 12.253906l-8.535156 14.777344c-2.921875 5.125-4.449219 10.921875-4.4375 16.820313-5.699219 1.511719-10.902344 4.488281-15.09375 8.636719l-12.066406 12.054687c-4.152344 4.191406-7.132813 9.394531-8.644532 15.097656-5.894531-.011719-11.691406 1.515625-16.820312 4.429688l-14.777344 8.53125c-5.09375 2.976562-9.3125 7.238281-12.238281 12.355469-5.6875-1.546876-11.679688-1.574219-17.382813-.082032l-16.476562 4.410156c-5.695313 1.5625-10.886719 4.585938-15.054688 8.773438-5.101562-2.964844-10.890625-4.539062-16.792968-4.566406h-17.066407c-5.894531.035156-11.675781 1.617187-16.769531 4.582031-4.167969-4.183594-9.355469-7.207031-15.050781-8.773437l-16.476563-4.410157c-5.710937-1.5-11.710937-1.476562-17.410156.066407-2.933594-5.125-7.164062-9.390626-12.261719-12.371094l-14.78125-8.535156c-5.125-2.914063-10.921875-4.441407-16.816406-4.429688-1.511719-5.699219-4.492187-10.90625-8.644531-15.09375l-12.066406-12.074219c-4.191407-4.148437-9.398438-7.125-15.097657-8.636719.015625-5.898437-1.515625-11.695312-4.4375-16.820312l-8.53125-14.777344c-2.96875-5.082031-7.21875-9.292968-12.324219-12.21875 1.546876-5.691406 1.574219-11.6875.078126-17.390625l-4.429688-16.503906c-1.558594-5.695313-4.578125-10.882813-8.761719-15.046875 2.964844-5.09375 4.546875-10.875 4.582031-16.765625v-17.066406c-.035156-5.894531-1.617187-11.675781-4.582031-16.769531 4.183594-4.164063 7.203125-9.351563 8.761719-15.042969l4.429688-16.488281c1.496093-5.707032 1.472656-11.710938-.078126-17.40625 5.121094-2.933594 9.378907-7.160157 12.347657-12.253907l8.535156-14.78125c2.921875-5.121093 4.453125-10.921875 4.4375-16.820312 5.699219-1.511719 10.902344-4.488281 15.09375-8.632813l12.066406-12.074218c4.113281-4.15625 7.078125-9.308594 8.601563-14.953126 5.925781-.03125 11.734375-1.605468 16.863281-4.574218l14.78125-8.53125c12.71875-7.261719 19.296875-21.902344 16.28125-36.234375 7.441406-2.105469 16.058594-4.375 24.609375-6.253907.601562 5.347657 1.730469 10.625 3.363281 15.753907.960938 2.894531 3.398438 5.058593 6.386719 5.671875 2.988281.613281 6.082031-.414063 8.105469-2.699219 2.027343-2.28125 2.683593-5.472656 1.71875-8.367187-1.324219-4.378907-2.203125-8.882813-2.621094-13.441407 3.832031-.550781 7.695313-.851562 11.566406-.902343 4.710938 0 8.53125-3.820313 8.53125-8.535157 0-4.710937-3.820312-8.53125-8.53125-8.53125-3.199219.03125-6.390625.226563-9.566406.585938.378906-.929688.847656-1.824219 1.398437-2.667969zm-200.117187 248.695312c-3.144531.886719-6.144531 2.234376-8.898437 3.992188-3-3.148438-4.675782-7.324219-4.683594-11.671875v-17.066406c.007812-4.347657 1.683594-8.527344 4.683594-11.675781 2.753906 1.757812 5.753906 3.105468 8.898437 3.996093 2.902344.777344 5.890625 1.171875 8.894531 1.175781 3.25-.011718 6.484375-.5 9.597656-1.441406 1.332032 2.4375 2.039063 5.167969 2.058594 7.945313v17.066406c-.023437 2.796875-.738281 5.542969-2.082031 7.996094-6.007813-1.816407-12.402344-1.925781-18.46875-.316407zm98.492187-218.871093 14.78125-8.535157c3.917969-2.273437 8.582032-2.886718 12.953126-1.707031.539062.144531 1.03125.394531 1.542968.582031-3.820312 1.828126-5.695312 6.210938-4.375 10.238282 1.488282 4.46875 6.316406 6.886718 10.785156 5.402344.09375 0 1.792969-.597657 4.574219-1.46875.738281 6.695312-2.566406 13.191406-8.414062 16.539062l-14.78125 8.53125c-2.425781 1.390625-5.164063 2.152344-7.960938 2.210938-2.109375-9.433594-8.285156-17.449219-16.871093-21.894532 1.21875-4.175781 4-7.722656 7.765624-9.898437zm-36.0625 27.671875c3.074219-3.066406 7.207032-4.839844 11.546876-4.949219.722656 3.191406 1.898437 6.265625 3.492187 9.121094 3.15625 5.414062 7.757813 9.847656 13.285156 12.800781-.789062 2.683594-2.226562 5.128906-4.191406 7.117188l-12.066406 12.074218c-2.003907 1.953125-4.476563 3.359375-7.183594 4.078125-4.476563-8.519531-12.492187-14.621093-21.894531-16.664062.105468-4.34375 1.875-8.480469 4.949218-11.554688zm-48.261718 62.917968 8.53125-14.78125c2.167968-3.761718 5.707031-6.542968 9.875-7.765624 4.433594 8.585937 12.453125 14.761718 21.886718 16.855468-.070312 2.792969-.828124 5.527344-2.210937 7.960938l-8.53125 14.777344c-1.414063 2.414062-3.40625 4.4375-5.796875 5.890624-4.296875-4.574218-9.777344-7.867187-15.835938-9.507812-3.171874-.800781-6.441406-1.136719-9.710937-.996094-1.023437-4.222656-.382813-8.675781 1.792969-12.433594zm-21.777344 58.46875 4.417969-16.484374c1.128906-4.195313 3.824219-7.796876 7.527343-10.0625 6.304688 6.910156 15.242188 10.816406 24.59375 10.753906.308594 0 .621094-.0625.929688-.070313.652344 2.699219.625 5.519531-.078125 8.210938l-4.417969 16.484375c-.746094 2.707031-2.152344 5.183594-4.097656 7.210937-5.335938-3.324219-11.496094-5.09375-17.78125-5.113281-3.269531.050781-6.515625.570312-9.636719 1.554688-2.0625-3.820313-2.585937-8.289063-1.457031-12.484376zm1.5 94.71875c3.105469.976563 6.335938 1.496094 9.59375 1.546876 6.273438-.027344 12.417969-1.800782 17.738281-5.121094 1.945313 2.027344 3.351563 4.503906 4.097657 7.210937l4.421874 16.488281c.703126 2.703126.726563 5.542969.066407 8.257813-6.273438-.203125-12.476563 1.34375-17.921875 4.472656-2.808594 1.679688-5.359375 3.753907-7.574219 6.160157-3.707031-2.265626-6.398437-5.867188-7.527344-10.058594l-4.394531-16.480469c-1.128906-4.195313-.605469-8.660156 1.457031-12.484375zm28.808594 85.734376-8.53125-14.785157c-2.152344-3.722656-2.804688-8.128906-1.820313-12.316406.285157 0 .566407.0625.855469.0625 3.003906-.003906 5.992188-.402344 8.890625-1.179687 6.058594-1.644532 11.542969-4.9375 15.839844-9.515626 2.386719 1.453126 4.378906 3.476563 5.792969 5.890626l8.535156 14.789062c1.378906 2.425781 2.140625 5.160156 2.207031 7.953125-9.4375 2.09375-17.457031 8.273437-21.886719 16.867187-4.171875-1.21875-7.710937-4-9.882812-7.765624zm27.667968 36.0625c-3.042968-3.042969-4.808593-7.132813-4.941406-11.433594 9.367188-2.1875 17.34375-8.304688 21.886719-16.785156 2.707031.71875 5.179687 2.125 7.183594 4.078124l12.066406 12.074219c1.964844 1.992188 3.402344 4.4375 4.191406 7.117188-8.523437 4.441406-14.648437 12.421875-16.734375 21.804687-4.332031-.054687-8.480468-1.769531-11.589844-4.789062zm62.90625 48.273437-14.78125-8.53125c-3.761718-2.171875-6.542968-5.707031-7.765624-9.875 8.585937-4.449219 14.761718-12.472656 16.863281-21.914063 2.796875.074219 5.53125.839844 7.960937 2.226563l14.78125 8.535156c2.421875 1.421875 4.453125 3.425781 5.914063 5.828125-7.152344 6.503906-11.015625 15.867188-10.53125 25.523438-4.222657 1.015625-8.675781.375-12.441407-1.792969zm58.480469 21.8125-16.488281-4.421875c-4.1875-1.132812-7.785156-3.824219-10.050781-7.527344 7.117187-6.476562 11.003906-15.769531 10.621093-25.382812 1.257813-.367188 2.550782-.582032 3.859376-.640625 1.484374 0 2.964843.195312 4.402343.578125l16.488281 4.421875c2.707032.742187 5.1875 2.152343 7.207032 4.105469-5.207032 8.136718-6.515625 18.175781-3.558594 27.375-3.8125 2.082031-8.285156 2.617187-12.480469 1.492187zm45.0625 5.929687c-4.339843-.007812-8.511719-1.675781-11.65625-4.667968 1.746094-2.765625 3.089844-5.769532 3.984375-8.917969 1.605469-6.066406 1.496094-12.457031-.324218-18.464844 2.453124-1.347656 5.199218-2.0625 7.996093-2.082031h17.066407c2.796874.019531 5.546874.734375 7.996093 2.082031-1.816406 6.007813-1.929687 12.398438-.324219 18.464844.894532 3.148437 2.238282 6.152344 3.984376 8.917969-3.144532 2.992187-7.316407 4.660156-11.65625 4.667968zm78.617188-10.351562-16.484375 4.421875c-4.199219 1.121094-8.667969.585937-12.484375-1.492187 2.957031-9.199219 1.652343-19.238282-3.558594-27.375 2.019531-1.953126 4.5-3.363282 7.210937-4.105469l16.484376-4.421875c1.4375-.382813 2.917968-.578125 4.402343-.578125 1.308594.058593 2.601563.273437 3.859375.640625-.375 9.601562 3.511719 18.878906 10.625 25.34375-2.257812 3.714844-5.855468 6.425781-10.054687 7.566406zm56.773437-25.921875-14.78125 8.53125c-3.765625 2.175781-8.222656 2.8125-12.449218 1.785156.484374-9.65625-3.378907-19.019531-10.53125-25.523437 1.457031-2.402344 3.488281-4.402344 5.914062-5.820313l14.78125-8.535156c2.429688-1.386719 5.164062-2.152344 7.960938-2.226563 2.101562 9.441407 8.28125 17.464844 16.871093 21.914063-1.222656 4.167969-4.003906 7.703125-7.765625 9.875zm36.0625-27.675781c-3.109375 3.019531-7.257812 4.734375-11.589844 4.789062-2.09375-9.378906-8.214843-17.355468-16.734374-21.804687.789062-2.679688 2.226562-5.125 4.191406-7.117188l12.066406-12.074219c1.992188-1.960937 4.441406-3.402343 7.125-4.1875 2.949219 5.53125 7.382812 10.136719 12.800781 13.292969 2.847657 1.632813 5.917969 2.847657 9.113281 3.601563-.136718 4.300781-1.902343 8.390625-4.941406 11.433594zm48.261719-62.914063-8.53125 14.777344c-2.167969 3.765625-5.707031 6.546875-9.875 7.765625-4.433594-8.585938-12.453125-14.761719-21.886719-16.851562.070313-2.796876.828125-5.53125 2.210938-7.960938l8.53125-14.78125c1.414062-2.414062 3.40625-4.4375 5.796875-5.886719 4.296875 4.574219 9.777343 7.871094 15.835937 9.511719 2.902344.777344 5.890625 1.175781 8.890625 1.179688.285157 0 .566407-.050782.855469-.058594.980469 4.183594.328125 8.582031-1.828125 12.304687zm21.820313-58.472656-4.417969 16.488281c-1.128907 4.191406-3.824219 7.792969-7.527344 10.058594-2.21875-2.402344-4.769531-4.480469-7.578125-6.160156-5.441406-3.125-11.648438-4.671875-17.917969-4.472656-.660156-2.714844-.636719-5.554688.066407-8.257813l4.421874-16.488281c.746094-2.707032 2.152344-5.183594 4.09375-7.210938 8.136719 5.210938 18.175782 6.515625 27.375 3.558594 2.074219 3.820312 2.605469 8.285156 1.484376 12.484375zm0 0"></path></svg>