<!-- icon666.com - MILLIONS vector ICONS FREE --><svg version="1.1" id="Layer_1" xmlns="http://www.w3.org/2000/svg" xmlns:xlink="http://www.w3.org/1999/xlink" fill="white" x="0px" y="0px" viewBox="0 0 480 480" style="enable-background:new 0 0 480 480;" xml:space="preserve"><g id="XMLID_519_"><g><g><path d="M204.598,412.569l-70.831,45.542l-81.582-52.455c-27.299-17.552-38.918-51.222-28.257-81.879L78.55,166.714 c1.02-2.935,3.319-5.164,6.142-6.153c4.18,19.362,19.609,34.592,39.076,38.476v100.962c0,5.522,4.476,10,9.998,10 c5.522,0,9.998-4.478,9.998-10V198.953c19.317-4.022,34.583-19.229,38.694-38.518c2.997,0.917,5.459,3.214,6.525,6.279 l23.152,66.574c1.814,5.217,7.511,7.973,12.728,6.16c5.215-1.814,7.973-7.515,6.159-12.73l-23.152-66.574 c-3.854-11.083-13.795-18.82-25.29-19.99c-3.897-19.44-19.099-34.842-38.432-39.026c1.709-12.89,7.133-24.812,15.693-34.236 c7.592-8.358,11.304-19.634,10.185-30.937c-1.913-19.33-17.375-34.403-36.766-35.842c-11.258-0.829-21.997,2.92-30.236,10.572 C94.899,18.231,90.24,28.915,90.24,40c0,5.522,4.476,10,9.998,10c5.522,0,9.998-4.478,9.998-10c0-5.624,2.271-10.83,6.394-14.66 c4.118-3.826,9.504-5.701,15.15-5.282c9.52,0.706,17.407,8.387,18.346,17.867c0.571,5.768-1.236,11.278-5.087,15.518 c-11.852,13.048-19.147,29.644-21.002,47.468c-19.85,3.845-35.552,19.475-39.505,39.289 c-11.318,1.313-21.065,8.997-24.871,19.945L5.042,317.207c-13.708,39.416,1.232,82.706,36.33,105.273l86.989,55.931 c1.647,1.059,3.527,1.588,5.407,1.588s3.76-0.529,5.407-1.588l76.237-49.017c4.645-2.987,5.99-9.174,3.003-13.819 C215.429,410.928,209.243,409.583,204.598,412.569z M133.563,120c16.539,0,29.995,13.458,29.995,30c0,16.542-13.456,30-29.995,30 s-29.995-13.458-29.995-30S117.024,120,133.563,120z"></path><path d="M133.768,337.999c-5.522,0-9.998,4.478-9.998,10v2c0,5.522,4.476,10,9.998,10c5.522,0,9.998-4.478,9.998-10v-2 C143.766,342.477,139.29,337.999,133.768,337.999z"></path><path d="M474.958,317.207l-54.622-157.063c-3.854-11.083-13.795-18.82-25.29-19.99c-3.897-19.44-19.099-34.842-38.432-39.026 c1.709-12.89,7.133-24.812,15.693-34.236c7.592-8.358,11.304-19.634,10.185-30.937c-1.913-19.33-17.375-34.403-36.765-35.842 c-11.257-0.829-21.998,2.92-30.237,10.572c-8.125,7.546-12.784,18.23-12.784,29.315c0,5.522,4.476,10,9.998,10 s9.998-4.478,9.998-10c0-5.624,2.271-10.83,6.394-14.66c4.119-3.824,9.504-5.689,15.151-5.282 c9.52,0.706,17.407,8.387,18.345,17.867c0.571,5.768-1.236,11.278-5.087,15.518c-11.853,13.048-19.147,29.644-21.002,47.468 c-19.85,3.845-35.552,19.475-39.505,39.29c-11.317,1.313-21.064,8.997-24.871,19.944l-54.622,157.063 c-13.708,39.416,1.232,82.706,36.33,105.273l86.989,55.931c1.647,1.059,3.527,1.588,5.407,1.588s3.76-0.529,5.407-1.588 l86.989-55.931C473.726,399.913,488.665,356.623,474.958,317.207z M346.027,120c16.539,0,29.995,13.458,29.995,30 c0,16.542-13.456,30-29.995,30s-29.995-13.458-29.995-30S329.488,120,346.027,120z M427.814,405.656l-81.582,52.455 l-81.582-52.455c-27.299-17.552-38.919-51.222-28.258-81.879l54.622-157.063c1.02-2.934,3.32-5.164,6.143-6.153 c4.18,19.362,19.609,34.592,39.077,38.476v100.962c0,5.522,4.476,10,9.998,10s9.998-4.478,9.998-10V198.953 c19.317-4.022,34.583-19.229,38.693-38.518c2.997,0.916,5.459,3.214,6.525,6.279l54.622,157.063 C466.733,354.435,455.113,388.105,427.814,405.656z"></path><path d="M346.233,337.999c-5.522,0-9.998,4.478-9.998,10v2c0,5.522,4.476,10,9.998,10s9.998-4.478,9.998-10v-2 C356.231,342.477,351.755,337.999,346.233,337.999z"></path></g></g></g></svg>