<!-- icon666.com - MILLIONS vector ICONS FREE --><svg fill="white" id="Layer_1" enable-background="new 0 0 100 100" viewBox="0 0 100 100" xmlns="http://www.w3.org/2000/svg"><path d="m89.8789062 11.4775391c.2636719-.4853516.0839844-1.0927734-.4013672-1.3564453-.4833984-.2617188-1.0927734-.0839844-1.3564453.4013672-11.3901977 20.9561157-34.7491455 32.9595947-38.1212768 34.6102294-3.3728638-1.6494751-26.722229-13.6387939-38.1209106-34.6102295-.2636719-.4853516-.8730469-.6630859-1.3564453-.4013672-.4853516.2636719-.6650391.8710938-.4013672 1.3564453 10.722168 19.7255249 31.7005005 31.6784668 37.7693481 34.8276978l-16.8650513 9.7367554c-.0228271.0131836-.0400391.0325317-.0615234.0473022-.0259399.0177612-.0493164.0363159-.0736694.0566406-.0909424.0758667-.1724243.1609497-.2307739.2620239-.000061.0001221-.0001831.0001221-.0002441.0002441-.0001831.0003052-.0001221.0006104-.0003052.0009155-.0580444.1008911-.0909424.2137451-.111084.3302002-.0053101.0308228-.0097046.0600586-.012085.0910034-.0020752.0263062-.0103149.0512085-.0103149.0778809v21.3330078c0 .0266724.0082397.0515747.0103149.0778809.0023804.0309448.0067749.0601807.012085.0910034.0201416.1164551.0530396.2293091.111084.3302002.0001831.0003052.0001221.0006104.0003052.0009155.0007935.0014038.0020752.0023193.0028687.0037231.0435791.074646.0966797.1435547.1584473.2049561.0389404.0388184.0844727.0675049.12854.0988159.0262451.0187988.0480347.0423584.076355.0587158l.0070801.0040894c.0001831.0001221.0003052.0002441.0004883.0003052l18.4670408 10.6625978c.0234375.0134888.0495605.0189209.0737305.0303955.0272827.0130005.0540161.0234985.0825806.0340576.1114501.0410156.2264404.0693359.3436889.0693359s.2321777-.0282593.3436279-.0693359c.0286255-.0105591.0554199-.0211182.0827637-.0341187.0241699-.0114135.0502319-.0169067.0736084-.0303344l18.467041-10.6625977c.0001831-.000061.0003052-.0001831.0004883-.0003052l.0070801-.0040894c.0283203-.0163574.0501099-.039917.076355-.0587158.0440674-.031311.0895996-.0599976.12854-.0988159.0617676-.0614014.1148682-.1303101.1584473-.2049561.0007935-.0014038.0020752-.0023193.0028687-.0037231.0001831-.0003052.0001221-.0006104.0003052-.0009155.0580444-.1008911.0909424-.2137451.111084-.3302002.0053101-.0308228.0097046-.0600586.012085-.0910034.0020752-.0263062.0103149-.0512085.0103149-.0778809v-21.3330078c0-.0266724-.0082397-.0515747-.0103149-.0778809-.0023804-.0309448-.0067749-.0601807-.012085-.0910034-.0201416-.1164551-.0530396-.2293091-.111084-.3302002-.0001831-.0003052-.0001221-.0006104-.0003052-.0009155-.000061-.0001221-.0001831-.0001221-.0002441-.0002441-.0584106-.1011963-.1400146-.1864624-.2311401-.2623291-.0241089-.0200806-.0473633-.0385742-.0730591-.0561523-.0216064-.0148315-.0388794-.0342407-.0617676-.0474854l-16.8650513-9.7367554c6.0688476-3.1492309 27.0471801-15.1021728 37.769348-34.8276977zm-22.4042968 65.031372-6.5751953-3.7963867v-10.2756348l6.5751953-3.7963867zm-34.9492188-17.8684082 6.5751953 3.7963867v10.2756348l-6.5751953 3.7963867zm17.4746094 19.2110596-8.8994141-5.1386719v-10.2763672l8.8994141-5.1386718 8.8994141 5.1386719v10.2763672zm-1-22.2855225-8.8994141 5.1384277-6.5752563-3.7964477 15.4746704-8.9342041zm-8.8994141 18.8789063 8.8994141 5.1384277v7.5931396l-15.4747314-8.9351196zm10.8994141 5.1384277 8.8994141-5.1384277 6.5753174 3.7964478-15.4747315 8.9351196zm8.8994141-18.8789062-8.8994141-5.1384278v-7.5922241l15.4746704 8.9342041z"></path></svg>