<!-- icon666.com - MILLIONS vector ICONS FREE --><svg version="1.1" id="Layer_1" xmlns="http://www.w3.org/2000/svg" xmlns:xlink="http://www.w3.org/1999/xlink" fill="white" x="0px" y="0px" viewBox="0 0 512 512" style="enable-background:new 0 0 512 512;" xml:space="preserve"><g><g><path d="M407.552,170.625c-2.818-3.115-7.625-3.353-10.741-0.536c-3.114,2.818-3.355,7.626-0.536,10.74 c31.498,34.809,48.845,79.857,48.845,126.844c0,104.279-84.839,189.118-189.118,189.118S66.882,411.953,66.882,307.674 c0-104.281,84.839-189.119,189.118-189.119c43.085,0,85.237,14.871,118.691,41.875c3.27,2.639,8.056,2.126,10.693-1.141 c2.638-3.268,2.127-8.055-1.141-10.692c-23.002-18.567-49.81-31.815-78.257-39.004l35.25-42.986 c1.983-2.419,2.283-5.805,0.755-8.535L311.679,3.892C310.335,1.488,307.797,0,305.044,0h-98.091c-2.754,0-5.291,1.488-6.636,3.891 l-30.314,54.181c-1.528,2.729-1.228,6.117,0.756,8.535l35.224,42.943C117.418,131.918,51.674,212.259,51.674,307.674 C51.674,420.34,143.334,512,256,512s204.326-91.66,204.326-204.326C460.327,256.908,441.584,208.238,407.552,170.625z M289.193,106.088c-8.442-1.396-16.988-2.266-25.586-2.589V69.392h55.679L289.193,106.088z M322.393,54.184H273.14l30.438-33.627 L322.393,54.184z M287.907,15.208L256,50.457l-31.906-35.249H287.907z M208.421,20.554l30.44,33.629h-49.256L208.421,20.554z M192.713,69.392H248.4v34.111c-8.685,0.319-17.232,1.182-25.61,2.557L192.713,69.392z"></path></g></g><g><g><path d="M256,150.673c-27.438,0-54.446,7.184-78.106,20.778c-22.942,13.18-42.343,32.1-56.104,54.712 c-2.183,3.587-1.044,8.265,2.543,10.449c3.59,2.183,8.266,1.046,10.45-2.543c12.433-20.429,29.961-37.523,50.688-49.432 c21.357-12.271,45.745-18.756,70.529-18.756c78.185,0,141.792,63.609,141.792,141.793S334.186,449.467,256,449.467 s-141.793-63.609-141.793-141.793c0-15.791,2.575-31.295,7.655-46.084c1.365-3.971-0.749-8.297-4.721-9.662 c-3.975-1.365-8.298,0.75-9.662,4.721C101.853,273.031,99,290.198,99,307.674c0,86.57,70.431,157.001,157.001,157.001 s157-70.431,157-157.001S342.57,150.673,256,150.673z"></path></g></g></svg>