<!-- icon666.com - MILLIONS vector ICONS FREE --><svg fill="white" id="Capa_1" enable-background="new 0 0 512.002 512.002" viewBox="0 0 512.002 512.002" xmlns="http://www.w3.org/2000/svg"><g><path d="m1.584 490.293c-2.888 5.775-1.756 12.75 2.81 17.315 4.55 4.551 11.521 5.707 17.314 2.81 57.749-28.875 110.179-66.664 155.833-112.318l101.004-101.004c5.846-.877 11.526-2.599 16.825-5.091 7.756 22.399 27.522 38.256 52.414 37.991 23.989-.249 43.276-16.119 50.849-37.991 21.554 10.133 48.002 7.111 65.591-10.889 16.345-16.687 19.965-42.405 9.345-64.326 22.431-7.571 38.758-27.423 38.428-52.572-.247-23.864-16.037-43.432-38.436-50.992 10.481-21.62 7.5-47.863-10.443-65.449-16.976-16.627-42.901-19.928-64.485-9.781-7.596-21.939-26.91-37.743-50.864-37.992-24.956-.237-44.662 15.648-52.399 37.992-21.334-10.032-47.684-7.285-65.593 10.889-16.624 16.974-19.928 42.899-9.78 64.485-21.938 7.597-37.742 26.91-37.991 50.864-.29 25.266 16.033 44.801 37.989 52.404-2.433 5.176-4.171 10.77-5.079 16.81l-101.013 101.012c-45.654 45.652-83.444 98.082-112.319 155.833zm250.318-229.478c-13.875-13.666-7.687-37.617 8.753-44.882 2.621-1.013-.491.214 23.654-9.76 2.757 4.195 5.975 8.173 9.661 11.859s7.664 6.905 11.859 9.661c-4.657 11.281-8.501 20.438-9.706 23.536-7.381 16.936-31.44 22.104-44.221 9.586zm126.92-127.636c17.545 17.546 17.545 46.094 0 63.64-17.544 17.544-46.094 17.546-63.64 0s-17.546-46.094 0-63.64c17.542-17.542 46.092-17.548 63.64 0zm-31.326 166.818c-19.57.202-30.04-21.852-23.467-37.707.042-.1 9.642-23.42 9.683-23.521 4.392.785 8.839 1.195 13.289 1.195s8.897-.41 13.29-1.195c12.369 30.046 9.132 22.197 9.861 23.914 6.096 16.831-4.8 37.129-22.656 37.314zm95.308-39.884c-.13.131-.537.539-.678.677-12.342 12.092-36.737 8.452-44.695-10.751l-9.255-22.346c4.195-2.757 8.173-5.975 11.859-9.661s6.904-7.664 9.661-11.859c31.013 13.79 20.293 9.053 22.616 10.016 17.158 7.107 23.249 30.897 10.492 43.924zm39.195-95.558c.202 19.492-21.635 30.134-38.478 23.157l-22.75-9.423c1.57-8.785 1.57-17.794 0-26.579l22.75-9.423c16.938-7.017 38.288 3.857 38.478 22.268zm-39.874-95.348c14.004 13.816 7.02 37.63-9.813 44.603-2.322.962 8.36-3.758-22.616 10.016-2.757-4.195-5.975-8.174-9.661-11.86s-7.664-6.904-11.859-9.66c4.674-11.322 8.491-20.417 9.702-23.526 7.295-16.762 31.243-22.309 44.247-9.573zm-94.651-39.205c18.349.191 29.135 21.703 22.501 37.707-.044.105-9.615 23.354-9.684 23.521-8.785-1.57-17.793-1.57-26.578 0-.076-.184-9.614-23.354-9.683-23.521-.057-.138-.126-.27-.184-.407-5.971-16.518 4.319-37.412 23.628-37.3zm-96.289 39.899c13.869-14.021 37.784-7.546 44.937 8.869 1.289 3.311 3.655 8.878 9.706 23.535-4.195 2.757-8.174 5.975-11.859 9.661-3.686 3.686-6.905 7.664-9.661 11.859-11.347-4.684-20.414-8.491-23.53-9.704-16.811-7.32-22.25-31.296-9.593-44.22zm-39.181 95.593c-.001-.19-.001-.798 0-.965.187-17.889 20.483-28.773 37.309-22.683.135.057.263.124.398.18.137.057 23.392 9.631 23.52 9.684-1.57 8.785-1.57 17.794 0 26.579-.117.048-23.417 9.64-23.52 9.683-.135.056-.263.123-.397.18-16.828 6.091-37.123-4.804-37.31-22.658zm9.211 104.079c2.796 5.053 5.928 8.971 9.67 12.65 3.466 3.395 7.356 6.252 11.54 8.567l-86.096 86.096c-31.027 31.027-65.35 58.23-102.458 81.245 23.015-37.109 50.219-71.432 81.245-102.458z"></path></g></svg>