<!-- icon666.com - MILLIONS vector ICONS FREE --><svg id="Layer_1" fill="white" enable-background="new 0 0 32 32" viewBox="0 0 32 32" xmlns="http://www.w3.org/2000/svg"><path d="m29.877 8.606c.423-1.6.146-3.312-.758-4.697-1.084-1.665-2.919-2.659-4.907-2.659h-16.424c-1.988 0-3.823.994-4.907 2.658-.904 1.387-1.181 3.099-.758 4.698.424 1.6 1.51 2.952 2.98 3.711l8.302 4.278c-.03.16-.05.324-.05.493 0 .203.028.399.072.59-1.161-.014-2.326.404-3.209 1.288-1.74 1.74-1.74 4.572 0 6.313l5.252 5.252c.146.146.338.22.53.22s.384-.073.53-.22l5.252-5.252c1.74-1.74 1.74-4.572 0-6.313-.884-.884-2.049-1.302-3.209-1.288.044-.19.072-.386.072-.59 0-.169-.019-.333-.05-.493l8.302-4.278c1.47-.758 2.556-2.111 2.98-3.711zm-14.221 9.149c.11.057.228.083.343.083.272 0 .534-.148.668-.406.189-.368.045-.82-.323-1.011l-.762-.393c.13-.052.27-.085.419-.085.631 0 1.145.514 1.145 1.145s-.515 1.144-1.146 1.144c-.53 0-.958-.37-1.087-.861zm5.066 2.271c1.155 1.155 1.155 3.036 0 4.191l-4.722 4.722-4.722-4.722c-1.155-1.155-1.155-3.036 0-4.191.578-.578 1.337-.866 2.096-.866s1.518.288 2.096.866c.293.293.768.293 1.061 0 1.156-1.156 3.034-1.156 4.191 0zm-2.817-4.764c-.482-.502-1.156-.819-1.905-.819s-1.423.316-1.905.819l-8.304-4.279c-1.095-.563-1.902-1.57-2.218-2.76-.314-1.19-.108-2.465.563-3.496.808-1.238 2.173-1.977 3.652-1.977h16.424c1.479 0 2.844.739 3.651 1.979.672 1.03.878 2.305.563 3.495-.315 1.189-1.123 2.196-2.218 2.76z"></path></svg>